<mxfile host="app.diagrams.net" modified="2023-01-13T07:34:39.827Z" agent="5.0 (Windows NT 10.0; Win64; x64) AppleWebKit/537.36 (KHTML, like Gecko) Chrome/109.0.0.0 Safari/537.36" version="20.8.4" etag="VXoI1QrozBbXtqqsOF_8" type="github">
  <diagram id="BXeGa4pHyN5TkNYhq5iM" name="Trang-1">
    <mxGraphModel dx="2542" dy="2214" grid="1" gridSize="10" guides="1" tooltips="1" connect="1" arrows="1" fold="1" page="1" pageScale="1" pageWidth="827" pageHeight="1169" math="0" shadow="0">
      <root>
        <mxCell id="0" />
        <mxCell id="1" parent="0" />
        <mxCell id="BnuAs7n9klCZgQ8jmztk-78" value="" style="rounded=0;whiteSpace=wrap;html=1;fontSize=20;" vertex="1" parent="1">
          <mxGeometry x="1570" y="-90" width="1640" height="1100" as="geometry" />
        </mxCell>
        <mxCell id="BnuAs7n9klCZgQ8jmztk-126" value="" style="rounded=0;whiteSpace=wrap;html=1;fontSize=20;fillColor=#dae8fc;strokeColor=#6c8ebf;" vertex="1" parent="1">
          <mxGeometry x="2500" y="260" width="690" height="730" as="geometry" />
        </mxCell>
        <mxCell id="BnuAs7n9klCZgQ8jmztk-125" value="" style="rounded=0;whiteSpace=wrap;html=1;fontSize=20;fillColor=#fff2cc;strokeColor=#d6b656;" vertex="1" parent="1">
          <mxGeometry x="1580" y="260" width="910" height="730" as="geometry" />
        </mxCell>
        <mxCell id="BnuAs7n9klCZgQ8jmztk-124" value="" style="rounded=0;whiteSpace=wrap;html=1;fontSize=20;fillColor=#dae8fc;strokeColor=#6c8ebf;" vertex="1" parent="1">
          <mxGeometry x="1580" y="-80" width="910" height="330" as="geometry" />
        </mxCell>
        <mxCell id="BnuAs7n9klCZgQ8jmztk-73" value="" style="rounded=0;whiteSpace=wrap;html=1;fontSize=20;" vertex="1" parent="1">
          <mxGeometry x="-30" y="-90" width="1420" height="1100" as="geometry" />
        </mxCell>
        <mxCell id="BnuAs7n9klCZgQ8jmztk-67" value="" style="rounded=0;whiteSpace=wrap;html=1;fillColor=#dae8fc;strokeColor=#6c8ebf;" vertex="1" parent="1">
          <mxGeometry x="790" y="470" width="550" height="490" as="geometry" />
        </mxCell>
        <mxCell id="BnuAs7n9klCZgQ8jmztk-66" value="" style="rounded=0;whiteSpace=wrap;html=1;fillColor=#fff2cc;strokeColor=#d6b656;" vertex="1" parent="1">
          <mxGeometry x="20" y="470" width="730" height="490" as="geometry" />
        </mxCell>
        <mxCell id="BnuAs7n9klCZgQ8jmztk-64" value="" style="rounded=0;whiteSpace=wrap;html=1;fillColor=#dae8fc;strokeColor=#6c8ebf;" vertex="1" parent="1">
          <mxGeometry x="20" y="-30" width="730" height="470" as="geometry" />
        </mxCell>
        <mxCell id="BnuAs7n9klCZgQ8jmztk-11" style="edgeStyle=orthogonalEdgeStyle;rounded=0;orthogonalLoop=1;jettySize=auto;html=1;" edge="1" parent="1" source="BnuAs7n9klCZgQ8jmztk-7" target="BnuAs7n9klCZgQ8jmztk-15">
          <mxGeometry relative="1" as="geometry">
            <mxPoint x="220" y="170" as="targetPoint" />
          </mxGeometry>
        </mxCell>
        <mxCell id="BnuAs7n9klCZgQ8jmztk-7" value="Bắt đầu" style="ellipse;whiteSpace=wrap;html=1;" vertex="1" parent="1">
          <mxGeometry x="160" y="10" width="120" height="80" as="geometry" />
        </mxCell>
        <mxCell id="BnuAs7n9klCZgQ8jmztk-10" style="edgeStyle=orthogonalEdgeStyle;rounded=0;orthogonalLoop=1;jettySize=auto;html=1;exitX=0.5;exitY=1;exitDx=0;exitDy=0;" edge="1" parent="1" target="BnuAs7n9klCZgQ8jmztk-9">
          <mxGeometry relative="1" as="geometry">
            <mxPoint x="220" y="230" as="sourcePoint" />
          </mxGeometry>
        </mxCell>
        <mxCell id="BnuAs7n9klCZgQ8jmztk-12" style="edgeStyle=orthogonalEdgeStyle;rounded=0;orthogonalLoop=1;jettySize=auto;html=1;exitX=1;exitY=0.5;exitDx=0;exitDy=0;entryX=1;entryY=0.5;entryDx=0;entryDy=0;" edge="1" parent="1" source="BnuAs7n9klCZgQ8jmztk-9" target="BnuAs7n9klCZgQ8jmztk-15">
          <mxGeometry relative="1" as="geometry">
            <mxPoint x="280" y="200" as="targetPoint" />
            <Array as="points">
              <mxPoint x="360" y="270" />
              <mxPoint x="360" y="160" />
            </Array>
          </mxGeometry>
        </mxCell>
        <mxCell id="BnuAs7n9klCZgQ8jmztk-23" value="" style="edgeStyle=orthogonalEdgeStyle;rounded=0;orthogonalLoop=1;jettySize=auto;html=1;" edge="1" parent="1" source="BnuAs7n9klCZgQ8jmztk-9" target="BnuAs7n9klCZgQ8jmztk-22">
          <mxGeometry relative="1" as="geometry" />
        </mxCell>
        <mxCell id="BnuAs7n9klCZgQ8jmztk-9" value="null ?" style="rhombus;whiteSpace=wrap;html=1;" vertex="1" parent="1">
          <mxGeometry x="180" y="230" width="80" height="80" as="geometry" />
        </mxCell>
        <mxCell id="BnuAs7n9klCZgQ8jmztk-14" value="null" style="text;html=1;strokeColor=none;fillColor=none;align=center;verticalAlign=middle;whiteSpace=wrap;rounded=0;" vertex="1" parent="1">
          <mxGeometry x="270" y="240" width="60" height="30" as="geometry" />
        </mxCell>
        <mxCell id="BnuAs7n9klCZgQ8jmztk-18" style="edgeStyle=orthogonalEdgeStyle;rounded=0;orthogonalLoop=1;jettySize=auto;html=1;entryX=0.5;entryY=0;entryDx=0;entryDy=0;" edge="1" parent="1" source="BnuAs7n9klCZgQ8jmztk-15" target="BnuAs7n9klCZgQ8jmztk-9">
          <mxGeometry relative="1" as="geometry" />
        </mxCell>
        <mxCell id="BnuAs7n9klCZgQ8jmztk-15" value="&lt;span style=&quot;color: rgb(0, 0, 0); font-family: Helvetica; font-size: 12px; font-style: normal; font-variant-ligatures: normal; font-variant-caps: normal; font-weight: 400; letter-spacing: normal; orphans: 2; text-align: center; text-indent: 0px; text-transform: none; widows: 2; word-spacing: 0px; -webkit-text-stroke-width: 0px; background-color: rgb(251, 251, 251); text-decoration-thickness: initial; text-decoration-style: initial; text-decoration-color: initial; float: none; display: inline !important;&quot;&gt;Người dùng nhập &lt;br&gt;tên đăng nhập và mật khẩu&lt;/span&gt;" style="shape=parallelogram;perimeter=parallelogramPerimeter;whiteSpace=wrap;html=1;fixedSize=1;" vertex="1" parent="1">
          <mxGeometry x="125" y="120" width="190" height="80" as="geometry" />
        </mxCell>
        <mxCell id="BnuAs7n9klCZgQ8jmztk-27" style="edgeStyle=orthogonalEdgeStyle;rounded=0;orthogonalLoop=1;jettySize=auto;html=1;" edge="1" parent="1" source="BnuAs7n9klCZgQ8jmztk-22" target="BnuAs7n9klCZgQ8jmztk-26">
          <mxGeometry relative="1" as="geometry" />
        </mxCell>
        <mxCell id="BnuAs7n9klCZgQ8jmztk-22" value="Mã hóa và gửi yêu cầu đăng nhập về server" style="whiteSpace=wrap;html=1;" vertex="1" parent="1">
          <mxGeometry x="160" y="340" width="120" height="60" as="geometry" />
        </mxCell>
        <mxCell id="BnuAs7n9klCZgQ8jmztk-24" value="!null" style="text;html=1;strokeColor=none;fillColor=none;align=center;verticalAlign=middle;whiteSpace=wrap;rounded=0;" vertex="1" parent="1">
          <mxGeometry x="160" y="310" width="60" height="30" as="geometry" />
        </mxCell>
        <mxCell id="BnuAs7n9klCZgQ8jmztk-29" value="" style="edgeStyle=orthogonalEdgeStyle;rounded=0;orthogonalLoop=1;jettySize=auto;html=1;" edge="1" parent="1" source="BnuAs7n9klCZgQ8jmztk-26" target="BnuAs7n9klCZgQ8jmztk-28">
          <mxGeometry relative="1" as="geometry" />
        </mxCell>
        <mxCell id="BnuAs7n9klCZgQ8jmztk-26" value="Server tiếp nhận, mở gói và giải mã" style="whiteSpace=wrap;html=1;" vertex="1" parent="1">
          <mxGeometry x="160" y="480" width="120" height="60" as="geometry" />
        </mxCell>
        <mxCell id="BnuAs7n9klCZgQ8jmztk-31" value="" style="edgeStyle=orthogonalEdgeStyle;rounded=0;orthogonalLoop=1;jettySize=auto;html=1;" edge="1" parent="1" source="BnuAs7n9klCZgQ8jmztk-28" target="BnuAs7n9klCZgQ8jmztk-30">
          <mxGeometry relative="1" as="geometry" />
        </mxCell>
        <mxCell id="BnuAs7n9klCZgQ8jmztk-35" value="" style="edgeStyle=orthogonalEdgeStyle;rounded=0;orthogonalLoop=1;jettySize=auto;html=1;" edge="1" parent="1" source="BnuAs7n9klCZgQ8jmztk-28" target="BnuAs7n9klCZgQ8jmztk-34">
          <mxGeometry relative="1" as="geometry" />
        </mxCell>
        <mxCell id="BnuAs7n9klCZgQ8jmztk-28" value="error ?" style="rhombus;whiteSpace=wrap;html=1;" vertex="1" parent="1">
          <mxGeometry x="180" y="560" width="80" height="80" as="geometry" />
        </mxCell>
        <mxCell id="BnuAs7n9klCZgQ8jmztk-33" value="" style="edgeStyle=orthogonalEdgeStyle;rounded=0;orthogonalLoop=1;jettySize=auto;html=1;" edge="1" parent="1" source="BnuAs7n9klCZgQ8jmztk-30" target="BnuAs7n9klCZgQ8jmztk-32">
          <mxGeometry relative="1" as="geometry" />
        </mxCell>
        <mxCell id="BnuAs7n9klCZgQ8jmztk-30" value="Query dữ liệu và đối chiếu." style="whiteSpace=wrap;html=1;" vertex="1" parent="1">
          <mxGeometry x="160" y="670" width="120" height="60" as="geometry" />
        </mxCell>
        <mxCell id="BnuAs7n9klCZgQ8jmztk-37" style="edgeStyle=orthogonalEdgeStyle;rounded=0;orthogonalLoop=1;jettySize=auto;html=1;" edge="1" parent="1" source="BnuAs7n9klCZgQ8jmztk-32" target="BnuAs7n9klCZgQ8jmztk-36">
          <mxGeometry relative="1" as="geometry" />
        </mxCell>
        <mxCell id="BnuAs7n9klCZgQ8jmztk-40" value="" style="edgeStyle=orthogonalEdgeStyle;rounded=0;orthogonalLoop=1;jettySize=auto;html=1;" edge="1" parent="1" source="BnuAs7n9klCZgQ8jmztk-32" target="BnuAs7n9klCZgQ8jmztk-39">
          <mxGeometry relative="1" as="geometry" />
        </mxCell>
        <mxCell id="BnuAs7n9klCZgQ8jmztk-32" value="Tồn tại ?" style="rhombus;whiteSpace=wrap;html=1;" vertex="1" parent="1">
          <mxGeometry x="180" y="760" width="80" height="80" as="geometry" />
        </mxCell>
        <mxCell id="BnuAs7n9klCZgQ8jmztk-44" style="edgeStyle=orthogonalEdgeStyle;rounded=0;orthogonalLoop=1;jettySize=auto;html=1;entryX=0.5;entryY=0;entryDx=0;entryDy=0;" edge="1" parent="1" source="BnuAs7n9klCZgQ8jmztk-34" target="BnuAs7n9klCZgQ8jmztk-43">
          <mxGeometry relative="1" as="geometry" />
        </mxCell>
        <mxCell id="BnuAs7n9klCZgQ8jmztk-34" value="500 { &quot;msg&quot;: &quot;Error Descrypting&quot; }&amp;nbsp;" style="whiteSpace=wrap;html=1;" vertex="1" parent="1">
          <mxGeometry x="354" y="570" width="186" height="60" as="geometry" />
        </mxCell>
        <mxCell id="BnuAs7n9klCZgQ8jmztk-45" style="edgeStyle=orthogonalEdgeStyle;rounded=0;orthogonalLoop=1;jettySize=auto;html=1;entryX=0;entryY=0.5;entryDx=0;entryDy=0;" edge="1" parent="1" source="BnuAs7n9klCZgQ8jmztk-36" target="BnuAs7n9klCZgQ8jmztk-43">
          <mxGeometry relative="1" as="geometry" />
        </mxCell>
        <mxCell id="BnuAs7n9klCZgQ8jmztk-36" value="404 { &quot;msg&quot;: &quot;Not found&quot; }&amp;nbsp;" style="whiteSpace=wrap;html=1;" vertex="1" parent="1">
          <mxGeometry x="354" y="770" width="186" height="60" as="geometry" />
        </mxCell>
        <mxCell id="BnuAs7n9klCZgQ8jmztk-38" value="False" style="text;html=1;strokeColor=none;fillColor=none;align=center;verticalAlign=middle;whiteSpace=wrap;rounded=0;" vertex="1" parent="1">
          <mxGeometry x="270" y="770" width="60" height="30" as="geometry" />
        </mxCell>
        <mxCell id="BnuAs7n9klCZgQ8jmztk-42" style="edgeStyle=orthogonalEdgeStyle;rounded=0;orthogonalLoop=1;jettySize=auto;html=1;" edge="1" parent="1" source="BnuAs7n9klCZgQ8jmztk-39" target="BnuAs7n9klCZgQ8jmztk-41">
          <mxGeometry relative="1" as="geometry" />
        </mxCell>
        <mxCell id="BnuAs7n9klCZgQ8jmztk-39" value="Đặt phiên" style="whiteSpace=wrap;html=1;" vertex="1" parent="1">
          <mxGeometry x="160" y="890" width="120" height="60" as="geometry" />
        </mxCell>
        <mxCell id="BnuAs7n9klCZgQ8jmztk-46" style="edgeStyle=orthogonalEdgeStyle;rounded=0;orthogonalLoop=1;jettySize=auto;html=1;entryX=0.5;entryY=1;entryDx=0;entryDy=0;" edge="1" parent="1" source="BnuAs7n9klCZgQ8jmztk-41" target="BnuAs7n9klCZgQ8jmztk-43">
          <mxGeometry relative="1" as="geometry" />
        </mxCell>
        <mxCell id="BnuAs7n9klCZgQ8jmztk-41" value="200 { &quot;msg&quot;: &quot;success&quot; }&amp;nbsp;" style="whiteSpace=wrap;html=1;" vertex="1" parent="1">
          <mxGeometry x="354" y="890" width="186" height="60" as="geometry" />
        </mxCell>
        <mxCell id="BnuAs7n9klCZgQ8jmztk-48" style="edgeStyle=orthogonalEdgeStyle;rounded=0;orthogonalLoop=1;jettySize=auto;html=1;" edge="1" parent="1" source="BnuAs7n9klCZgQ8jmztk-43" target="BnuAs7n9klCZgQ8jmztk-47">
          <mxGeometry relative="1" as="geometry" />
        </mxCell>
        <mxCell id="BnuAs7n9klCZgQ8jmztk-43" value="res.send()" style="rounded=0;whiteSpace=wrap;html=1;" vertex="1" parent="1">
          <mxGeometry x="600" y="770" width="120" height="60" as="geometry" />
        </mxCell>
        <mxCell id="BnuAs7n9klCZgQ8jmztk-52" value="" style="edgeStyle=orthogonalEdgeStyle;rounded=0;orthogonalLoop=1;jettySize=auto;html=1;" edge="1" parent="1" source="BnuAs7n9klCZgQ8jmztk-47" target="BnuAs7n9klCZgQ8jmztk-51">
          <mxGeometry relative="1" as="geometry" />
        </mxCell>
        <mxCell id="BnuAs7n9klCZgQ8jmztk-47" value="Tiếp nhận phản hồi" style="rounded=0;whiteSpace=wrap;html=1;" vertex="1" parent="1">
          <mxGeometry x="827" y="770" width="120" height="60" as="geometry" />
        </mxCell>
        <mxCell id="BnuAs7n9klCZgQ8jmztk-60" value="" style="edgeStyle=orthogonalEdgeStyle;rounded=0;orthogonalLoop=1;jettySize=auto;html=1;" edge="1" parent="1" source="BnuAs7n9klCZgQ8jmztk-51" target="BnuAs7n9klCZgQ8jmztk-59">
          <mxGeometry relative="1" as="geometry" />
        </mxCell>
        <mxCell id="BnuAs7n9klCZgQ8jmztk-62" value="" style="edgeStyle=orthogonalEdgeStyle;rounded=0;orthogonalLoop=1;jettySize=auto;html=1;" edge="1" parent="1" source="BnuAs7n9klCZgQ8jmztk-51" target="BnuAs7n9klCZgQ8jmztk-61">
          <mxGeometry relative="1" as="geometry" />
        </mxCell>
        <mxCell id="BnuAs7n9klCZgQ8jmztk-51" value="status === 200" style="rhombus;whiteSpace=wrap;html=1;rounded=0;" vertex="1" parent="1">
          <mxGeometry x="1000" y="750" width="100" height="100" as="geometry" />
        </mxCell>
        <mxCell id="BnuAs7n9klCZgQ8jmztk-53" value="True" style="text;html=1;strokeColor=none;fillColor=none;align=center;verticalAlign=middle;whiteSpace=wrap;rounded=0;" vertex="1" parent="1">
          <mxGeometry x="270" y="570" width="60" height="30" as="geometry" />
        </mxCell>
        <mxCell id="BnuAs7n9klCZgQ8jmztk-55" value="False" style="text;html=1;strokeColor=none;fillColor=none;align=center;verticalAlign=middle;whiteSpace=wrap;rounded=0;" vertex="1" parent="1">
          <mxGeometry x="220" y="640" width="60" height="30" as="geometry" />
        </mxCell>
        <mxCell id="BnuAs7n9klCZgQ8jmztk-56" value="True" style="text;html=1;strokeColor=none;fillColor=none;align=center;verticalAlign=middle;whiteSpace=wrap;rounded=0;" vertex="1" parent="1">
          <mxGeometry x="210" y="850" width="60" height="30" as="geometry" />
        </mxCell>
        <mxCell id="BnuAs7n9klCZgQ8jmztk-57" value="True" style="text;html=1;strokeColor=none;fillColor=none;align=center;verticalAlign=middle;whiteSpace=wrap;rounded=0;" vertex="1" parent="1">
          <mxGeometry x="1100" y="800" width="60" height="30" as="geometry" />
        </mxCell>
        <mxCell id="BnuAs7n9klCZgQ8jmztk-79" style="edgeStyle=orthogonalEdgeStyle;rounded=0;orthogonalLoop=1;jettySize=auto;html=1;entryX=0;entryY=0.5;entryDx=0;entryDy=0;fontSize=20;" edge="1" parent="1" source="BnuAs7n9klCZgQ8jmztk-59" target="BnuAs7n9klCZgQ8jmztk-78">
          <mxGeometry relative="1" as="geometry" />
        </mxCell>
        <mxCell id="BnuAs7n9klCZgQ8jmztk-59" value="Chuyển hướng" style="whiteSpace=wrap;html=1;rounded=0;" vertex="1" parent="1">
          <mxGeometry x="1170" y="770" width="120" height="60" as="geometry" />
        </mxCell>
        <mxCell id="BnuAs7n9klCZgQ8jmztk-63" style="edgeStyle=orthogonalEdgeStyle;rounded=0;orthogonalLoop=1;jettySize=auto;html=1;entryX=1;entryY=0.5;entryDx=0;entryDy=0;" edge="1" parent="1" source="BnuAs7n9klCZgQ8jmztk-61" target="BnuAs7n9klCZgQ8jmztk-15">
          <mxGeometry relative="1" as="geometry">
            <Array as="points">
              <mxPoint x="1040" y="430" />
              <mxPoint x="360" y="430" />
              <mxPoint x="360" y="160" />
            </Array>
          </mxGeometry>
        </mxCell>
        <mxCell id="BnuAs7n9klCZgQ8jmztk-61" value="Báo lỗi" style="whiteSpace=wrap;html=1;rounded=0;" vertex="1" parent="1">
          <mxGeometry x="990" y="590" width="120" height="60" as="geometry" />
        </mxCell>
        <mxCell id="BnuAs7n9klCZgQ8jmztk-69" value="False" style="text;html=1;strokeColor=none;fillColor=none;align=center;verticalAlign=middle;whiteSpace=wrap;rounded=0;" vertex="1" parent="1">
          <mxGeometry x="990" y="680" width="60" height="30" as="geometry" />
        </mxCell>
        <mxCell id="BnuAs7n9klCZgQ8jmztk-70" value="&lt;font style=&quot;font-size: 20px;&quot;&gt;FRONTEND&lt;/font&gt;" style="text;html=1;strokeColor=none;fillColor=none;align=center;verticalAlign=middle;whiteSpace=wrap;rounded=0;" vertex="1" parent="1">
          <mxGeometry x="600" y="-30" width="160" height="40" as="geometry" />
        </mxCell>
        <mxCell id="BnuAs7n9klCZgQ8jmztk-71" value="&lt;font style=&quot;font-size: 20px;&quot;&gt;BACKEND&lt;/font&gt;" style="text;html=1;strokeColor=none;fillColor=none;align=center;verticalAlign=middle;whiteSpace=wrap;rounded=0;" vertex="1" parent="1">
          <mxGeometry x="610" y="470" width="160" height="40" as="geometry" />
        </mxCell>
        <mxCell id="BnuAs7n9klCZgQ8jmztk-72" value="&lt;font style=&quot;font-size: 20px;&quot;&gt;FRONTEND&lt;/font&gt;" style="text;html=1;strokeColor=none;fillColor=none;align=center;verticalAlign=middle;whiteSpace=wrap;rounded=0;" vertex="1" parent="1">
          <mxGeometry x="1190" y="470" width="160" height="40" as="geometry" />
        </mxCell>
        <mxCell id="BnuAs7n9klCZgQ8jmztk-74" value="&lt;h1&gt;ĐĂNG NHẬP&lt;/h1&gt;&lt;div&gt;Đăng nhập cho cả người dùng và người quản trị.&lt;/div&gt;&lt;div&gt;&lt;br&gt;&lt;/div&gt;&lt;div&gt;Bắt lỗi đăng nhập với ký tự không hợp lệ.&lt;/div&gt;&lt;div&gt;&lt;br&gt;&lt;/div&gt;&lt;div&gt;Bắt lỗi submit với giá trị rỗng.&lt;/div&gt;" style="text;html=1;strokeColor=none;fillColor=none;spacing=5;spacingTop=-20;whiteSpace=wrap;overflow=hidden;rounded=0;fontSize=20;" vertex="1" parent="1">
          <mxGeometry x="820" y="-30" width="600" height="470" as="geometry" />
        </mxCell>
        <mxCell id="BnuAs7n9klCZgQ8jmztk-80" value="&lt;h1&gt;TRANG DÀNH CHO NGƯỜI DÙNG&lt;br&gt;&lt;/h1&gt;&lt;div&gt;Render dựa vào widgets được lưu trong cơ sở dữ liệu.&lt;/div&gt;" style="text;html=1;strokeColor=none;fillColor=none;spacing=5;spacingTop=-20;whiteSpace=wrap;overflow=hidden;rounded=0;fontSize=20;" vertex="1" parent="1">
          <mxGeometry x="2500" y="-80" width="680" height="120" as="geometry" />
        </mxCell>
        <mxCell id="BnuAs7n9klCZgQ8jmztk-83" value="" style="edgeStyle=orthogonalEdgeStyle;rounded=0;orthogonalLoop=1;jettySize=auto;html=1;fontSize=20;" edge="1" parent="1" source="BnuAs7n9klCZgQ8jmztk-81" target="BnuAs7n9klCZgQ8jmztk-82">
          <mxGeometry relative="1" as="geometry" />
        </mxCell>
        <mxCell id="BnuAs7n9klCZgQ8jmztk-81" value="Bắt đầu" style="ellipse;whiteSpace=wrap;html=1;fontSize=20;" vertex="1" parent="1">
          <mxGeometry x="1690" y="-70" width="120" height="80" as="geometry" />
        </mxCell>
        <mxCell id="BnuAs7n9klCZgQ8jmztk-86" value="" style="edgeStyle=orthogonalEdgeStyle;rounded=0;orthogonalLoop=1;jettySize=auto;html=1;fontSize=20;" edge="1" parent="1" source="BnuAs7n9klCZgQ8jmztk-82" target="BnuAs7n9klCZgQ8jmztk-85">
          <mxGeometry relative="1" as="geometry" />
        </mxCell>
        <mxCell id="BnuAs7n9klCZgQ8jmztk-82" value="Gọi dữ liệu thiết đặt trang bằng URL hiện tại" style="whiteSpace=wrap;html=1;fontSize=20;" vertex="1" parent="1">
          <mxGeometry x="1620" y="110" width="260" height="60" as="geometry" />
        </mxCell>
        <mxCell id="BnuAs7n9klCZgQ8jmztk-91" value="" style="edgeStyle=orthogonalEdgeStyle;rounded=0;orthogonalLoop=1;jettySize=auto;html=1;fontSize=20;" edge="1" parent="1" source="BnuAs7n9klCZgQ8jmztk-85" target="BnuAs7n9klCZgQ8jmztk-90">
          <mxGeometry relative="1" as="geometry" />
        </mxCell>
        <mxCell id="BnuAs7n9klCZgQ8jmztk-85" value="Tiếp nhận yêu cầu" style="whiteSpace=wrap;html=1;fontSize=20;" vertex="1" parent="1">
          <mxGeometry x="1625" y="270" width="250" height="60" as="geometry" />
        </mxCell>
        <mxCell id="BnuAs7n9klCZgQ8jmztk-93" value="" style="edgeStyle=orthogonalEdgeStyle;rounded=0;orthogonalLoop=1;jettySize=auto;html=1;fontSize=20;" edge="1" parent="1" source="BnuAs7n9klCZgQ8jmztk-90" target="BnuAs7n9klCZgQ8jmztk-92">
          <mxGeometry relative="1" as="geometry" />
        </mxCell>
        <mxCell id="BnuAs7n9klCZgQ8jmztk-90" value="Query cơ sở dữ liệu để tìm trang có URL giống yêu cầu" style="whiteSpace=wrap;html=1;fontSize=20;" vertex="1" parent="1">
          <mxGeometry x="1617.5" y="360" width="265" height="60" as="geometry" />
        </mxCell>
        <mxCell id="BnuAs7n9klCZgQ8jmztk-95" value="" style="edgeStyle=orthogonalEdgeStyle;rounded=0;orthogonalLoop=1;jettySize=auto;html=1;fontSize=20;" edge="1" parent="1" source="BnuAs7n9klCZgQ8jmztk-92" target="BnuAs7n9klCZgQ8jmztk-94">
          <mxGeometry relative="1" as="geometry" />
        </mxCell>
        <mxCell id="BnuAs7n9klCZgQ8jmztk-97" value="" style="edgeStyle=orthogonalEdgeStyle;rounded=0;orthogonalLoop=1;jettySize=auto;html=1;fontSize=20;" edge="1" parent="1" source="BnuAs7n9klCZgQ8jmztk-92" target="BnuAs7n9klCZgQ8jmztk-96">
          <mxGeometry relative="1" as="geometry" />
        </mxCell>
        <mxCell id="BnuAs7n9klCZgQ8jmztk-92" value="Tồn tại" style="rhombus;whiteSpace=wrap;html=1;fontSize=20;" vertex="1" parent="1">
          <mxGeometry x="1685" y="590" width="130" height="80" as="geometry" />
        </mxCell>
        <mxCell id="BnuAs7n9klCZgQ8jmztk-104" style="edgeStyle=orthogonalEdgeStyle;rounded=0;orthogonalLoop=1;jettySize=auto;html=1;entryX=0;entryY=0.5;entryDx=0;entryDy=0;fontSize=20;" edge="1" parent="1" source="BnuAs7n9klCZgQ8jmztk-94" target="BnuAs7n9klCZgQ8jmztk-103">
          <mxGeometry relative="1" as="geometry" />
        </mxCell>
        <mxCell id="BnuAs7n9klCZgQ8jmztk-94" value="404 { msg: &quot;Not found&quot; }" style="whiteSpace=wrap;html=1;fontSize=20;" vertex="1" parent="1">
          <mxGeometry x="1930" y="595" width="320" height="60" as="geometry" />
        </mxCell>
        <mxCell id="BnuAs7n9klCZgQ8jmztk-102" value="" style="edgeStyle=orthogonalEdgeStyle;rounded=0;orthogonalLoop=1;jettySize=auto;html=1;fontSize=20;" edge="1" parent="1" source="BnuAs7n9klCZgQ8jmztk-96" target="BnuAs7n9klCZgQ8jmztk-101">
          <mxGeometry relative="1" as="geometry" />
        </mxCell>
        <mxCell id="BnuAs7n9klCZgQ8jmztk-96" value="Query toàn bộ widgets và components của trang" style="whiteSpace=wrap;html=1;fontSize=20;" vertex="1" parent="1">
          <mxGeometry x="1627.5" y="770" width="245" height="60" as="geometry" />
        </mxCell>
        <mxCell id="BnuAs7n9klCZgQ8jmztk-98" value="False" style="text;html=1;strokeColor=none;fillColor=none;align=center;verticalAlign=middle;whiteSpace=wrap;rounded=0;fontSize=20;" vertex="1" parent="1">
          <mxGeometry x="1840" y="600" width="60" height="30" as="geometry" />
        </mxCell>
        <mxCell id="BnuAs7n9klCZgQ8jmztk-99" value="True" style="text;html=1;strokeColor=none;fillColor=none;align=center;verticalAlign=middle;whiteSpace=wrap;rounded=0;fontSize=20;" vertex="1" parent="1">
          <mxGeometry x="1685" y="685" width="60" height="30" as="geometry" />
        </mxCell>
        <mxCell id="BnuAs7n9klCZgQ8jmztk-105" style="edgeStyle=orthogonalEdgeStyle;rounded=0;orthogonalLoop=1;jettySize=auto;html=1;entryX=0;entryY=0.75;entryDx=0;entryDy=0;fontSize=20;" edge="1" parent="1" source="BnuAs7n9klCZgQ8jmztk-101" target="BnuAs7n9klCZgQ8jmztk-103">
          <mxGeometry relative="1" as="geometry" />
        </mxCell>
        <mxCell id="BnuAs7n9klCZgQ8jmztk-101" value="200 { &lt;br&gt;&lt;span style=&quot;white-space: pre;&quot;&gt;	&lt;/span&gt;msg: &quot;success&quot;, &lt;br&gt;&lt;span style=&quot;white-space: pre;&quot;&gt;	&lt;/span&gt;data: { widgets, components } }" style="whiteSpace=wrap;html=1;fontSize=20;align=left;" vertex="1" parent="1">
          <mxGeometry x="1930" y="745" width="320" height="110" as="geometry" />
        </mxCell>
        <mxCell id="BnuAs7n9klCZgQ8jmztk-114" value="" style="edgeStyle=orthogonalEdgeStyle;rounded=0;orthogonalLoop=1;jettySize=auto;html=1;fontSize=20;" edge="1" parent="1" source="BnuAs7n9klCZgQ8jmztk-103" target="BnuAs7n9klCZgQ8jmztk-113">
          <mxGeometry relative="1" as="geometry" />
        </mxCell>
        <mxCell id="BnuAs7n9klCZgQ8jmztk-103" value="res.send()" style="rounded=0;whiteSpace=wrap;html=1;fontSize=20;" vertex="1" parent="1">
          <mxGeometry x="2350" y="680" width="120" height="60" as="geometry" />
        </mxCell>
        <mxCell id="BnuAs7n9klCZgQ8jmztk-108" value="" style="edgeStyle=orthogonalEdgeStyle;rounded=0;orthogonalLoop=1;jettySize=auto;html=1;fontSize=20;" edge="1" parent="1" source="BnuAs7n9klCZgQ8jmztk-106" target="BnuAs7n9klCZgQ8jmztk-107">
          <mxGeometry relative="1" as="geometry" />
        </mxCell>
        <mxCell id="BnuAs7n9klCZgQ8jmztk-106" value="Tồn tại" style="rhombus;whiteSpace=wrap;html=1;fontSize=20;" vertex="1" parent="1">
          <mxGeometry x="1685" y="450" width="130" height="80" as="geometry" />
        </mxCell>
        <mxCell id="BnuAs7n9klCZgQ8jmztk-109" style="edgeStyle=orthogonalEdgeStyle;rounded=0;orthogonalLoop=1;jettySize=auto;html=1;entryX=0;entryY=0.25;entryDx=0;entryDy=0;fontSize=20;" edge="1" parent="1" source="BnuAs7n9klCZgQ8jmztk-107" target="BnuAs7n9klCZgQ8jmztk-103">
          <mxGeometry relative="1" as="geometry">
            <Array as="points">
              <mxPoint x="2320" y="490" />
              <mxPoint x="2320" y="695" />
            </Array>
          </mxGeometry>
        </mxCell>
        <mxCell id="BnuAs7n9klCZgQ8jmztk-107" value="500 { msg: &quot;Server error&quot; }" style="whiteSpace=wrap;html=1;fontSize=20;" vertex="1" parent="1">
          <mxGeometry x="1930" y="460" width="320" height="60" as="geometry" />
        </mxCell>
        <mxCell id="BnuAs7n9klCZgQ8jmztk-110" value="False" style="text;html=1;strokeColor=none;fillColor=none;align=center;verticalAlign=middle;whiteSpace=wrap;rounded=0;fontSize=20;" vertex="1" parent="1">
          <mxGeometry x="1850" y="460" width="60" height="30" as="geometry" />
        </mxCell>
        <mxCell id="BnuAs7n9klCZgQ8jmztk-111" value="True" style="text;html=1;strokeColor=none;fillColor=none;align=center;verticalAlign=middle;whiteSpace=wrap;rounded=0;fontSize=20;" vertex="1" parent="1">
          <mxGeometry x="1690" y="540" width="60" height="30" as="geometry" />
        </mxCell>
        <mxCell id="BnuAs7n9klCZgQ8jmztk-116" value="" style="edgeStyle=orthogonalEdgeStyle;rounded=0;orthogonalLoop=1;jettySize=auto;html=1;fontSize=20;" edge="1" parent="1" source="BnuAs7n9klCZgQ8jmztk-113" target="BnuAs7n9klCZgQ8jmztk-115">
          <mxGeometry relative="1" as="geometry" />
        </mxCell>
        <mxCell id="BnuAs7n9klCZgQ8jmztk-113" value="Tiếp nhận phản hồi" style="whiteSpace=wrap;html=1;fontSize=20;rounded=0;" vertex="1" parent="1">
          <mxGeometry x="2560" y="680" width="210" height="60" as="geometry" />
        </mxCell>
        <mxCell id="BnuAs7n9klCZgQ8jmztk-119" value="" style="edgeStyle=orthogonalEdgeStyle;rounded=0;orthogonalLoop=1;jettySize=auto;html=1;fontSize=20;" edge="1" parent="1" source="BnuAs7n9klCZgQ8jmztk-115" target="BnuAs7n9klCZgQ8jmztk-118">
          <mxGeometry relative="1" as="geometry" />
        </mxCell>
        <mxCell id="BnuAs7n9klCZgQ8jmztk-121" value="" style="edgeStyle=orthogonalEdgeStyle;rounded=0;orthogonalLoop=1;jettySize=auto;html=1;fontSize=20;" edge="1" parent="1" source="BnuAs7n9klCZgQ8jmztk-115" target="BnuAs7n9klCZgQ8jmztk-120">
          <mxGeometry relative="1" as="geometry" />
        </mxCell>
        <mxCell id="BnuAs7n9klCZgQ8jmztk-115" value="status === 200" style="rhombus;whiteSpace=wrap;html=1;fontSize=20;rounded=0;" vertex="1" parent="1">
          <mxGeometry x="2870" y="645" width="180" height="130" as="geometry" />
        </mxCell>
        <mxCell id="BnuAs7n9klCZgQ8jmztk-118" value="Mở gói và intergrate giao diện theo dữ liệu" style="whiteSpace=wrap;html=1;fontSize=20;rounded=0;" vertex="1" parent="1">
          <mxGeometry x="2853.75" y="840" width="212.5" height="80" as="geometry" />
        </mxCell>
        <mxCell id="BnuAs7n9klCZgQ8jmztk-120" value="Báo lỗi" style="whiteSpace=wrap;html=1;fontSize=20;rounded=0;" vertex="1" parent="1">
          <mxGeometry x="2900" y="470" width="120" height="60" as="geometry" />
        </mxCell>
        <mxCell id="BnuAs7n9klCZgQ8jmztk-122" value="True" style="text;html=1;strokeColor=none;fillColor=none;align=center;verticalAlign=middle;whiteSpace=wrap;rounded=0;fontSize=20;" vertex="1" parent="1">
          <mxGeometry x="2894" y="785" width="60" height="30" as="geometry" />
        </mxCell>
        <mxCell id="BnuAs7n9klCZgQ8jmztk-123" value="False" style="text;html=1;strokeColor=none;fillColor=none;align=center;verticalAlign=middle;whiteSpace=wrap;rounded=0;fontSize=20;" vertex="1" parent="1">
          <mxGeometry x="2894" y="580" width="60" height="30" as="geometry" />
        </mxCell>
      </root>
    </mxGraphModel>
  </diagram>
</mxfile>
